<?xml version="1.0" encoding="UTF-8" standalone="no"?>
<!-- Created with Inkscape (http://www.inkscape.org/) -->

<svg
   xmlns:dc="http://purl.org/dc/elements/1.1/"
   xmlns:cc="http://creativecommons.org/ns#"
   xmlns:rdf="http://www.w3.org/1999/02/22-rdf-syntax-ns#"
   xmlns:svg="http://www.w3.org/2000/svg"
   xmlns="http://www.w3.org/2000/svg"
   xmlns:sodipodi="http://sodipodi.sourceforge.net/DTD/sodipodi-0.dtd"
   xmlns:inkscape="http://www.inkscape.org/namespaces/inkscape"
   width="145.39488mm"
   height="28.012697mm"
   viewBox="0 0 145.39488 28.012697"
   version="1.1"
   id="svg1092"
   inkscape:version="0.92.2 5c3e80d, 2017-08-06"
   sodipodi:docname="logo.svg">
  <defs
     id="defs1086" />
  <sodipodi:namedview
     id="base"
     pagecolor="#ffffff"
     bordercolor="#666666"
     borderopacity="1.0"
     inkscape:pageopacity="0.0"
     inkscape:pageshadow="2"
     inkscape:zoom="0.7"
     inkscape:cx="113.17712"
     inkscape:cy="-376.38937"
     inkscape:document-units="px"
     inkscape:current-layer="layer1"
     showgrid="false"
     fit-margin-top="0"
     fit-margin-left="0"
     fit-margin-right="0"
     fit-margin-bottom="0"
     borderlayer="true"
     inkscape:showpageshadow="false"
     inkscape:window-width="1920"
     inkscape:window-height="1016"
     inkscape:window-x="0"
     inkscape:window-y="37"
     inkscape:window-maximized="1" />
  <metadata
     id="metadata1089">
    <rdf:RDF>
      <cc:Work
         rdf:about="">
        <dc:format>image/svg+xml</dc:format>
        <dc:type
           rdf:resource="http://purl.org/dc/dcmitype/StillImage" />
        <dc:title></dc:title>
      </cc:Work>
    </rdf:RDF>
  </metadata>
  <g
     inkscape:label="Layer 1"
     inkscape:groupmode="layer"
     id="layer1"
     transform="translate(-34.524844,53.229814)">
    <g
       aria-label="inFOCUS"
       style="font-style:normal;font-weight:normal;font-size:27.43015671px;line-height:21.21551132px;font-family:Sans;letter-spacing:0px;word-spacing:0px;fill:#000000;fill-opacity:1;stroke:none;stroke-width:0.64289427px;stroke-linecap:butt;stroke-linejoin:miter;stroke-opacity:1"
       id="text1012">
      <path
         d="m 65.714258,-27.29723 v -12.837313 h 3.154468 v 12.837313 z"
         style="fill:#00aa88;fill-opacity:1;stroke-width:0.64289427px"
         id="path20"
         inkscape:connector-curvature="0" />
      <path
         d="m 84.75293,-27.29723 h 2.907597 v -9.737705 q -0.713184,-2.743016 -3.785362,-3.099608 H 71.339584 v 12.837313 h 2.880166 v -10.066867 h 7.927315 q 2.468714,0.02743 2.605865,2.057261 z"
         style="fill:#00aa88;fill-opacity:1;stroke-width:0.64289427px"
         id="path22"
         inkscape:connector-curvature="0" />
      <path
         d="m 93.134131,-27.29723 v -3.4562 h 7.022119 v -2.825306 H 93.1067 v -2.358993 q 0,-1.398938 1.782961,-1.398938 h 9.819999 v -2.770446 H 93.792454 q -3.099607,0.548603 -3.648211,2.852736 v 9.957147 z"
         style="font-style:normal;font-variant:normal;font-weight:normal;font-stretch:normal;font-size:27.43015671px;font-family:'4114 Blaster';-inkscape-font-specification:'4114 Blaster, Normal';font-variant-ligatures:normal;font-variant-caps:normal;font-variant-numeric:normal;font-feature-settings:normal;text-align:start;writing-mode:lr-tb;text-anchor:start;stroke-width:0.64289427px"
         id="path24"
         inkscape:connector-curvature="0" />
      <path
         d="m 119.77138,-40.134543 h -8.69536 q -3.51106,0.301732 -3.86765,3.703071 h -0.0274 v 5.403741 q 0.41145,3.4562 3.89508,3.730501 h 8.69536 q 3.37391,-0.356592 3.75793,-3.730501 v -5.403741 h -0.0274 q -0.38402,-3.346479 -3.7305,-3.703071 z m -9.60055,4.279104 q 0,-0.576033 0.49374,-0.905195 0.49374,-0.356592 1.28922,-0.356592 h 6.74782 q 1.70067,0 1.89268,1.261787 v 3.895083 q 0,1.645809 -1.89268,1.645809 h -6.74782 q -1.78296,0 -1.78296,-1.563519 z"
         style="font-style:normal;font-variant:normal;font-weight:normal;font-stretch:normal;font-size:27.43015671px;font-family:'4114 Blaster';-inkscape-font-specification:'4114 Blaster, Normal';font-variant-ligatures:normal;font-variant-caps:normal;font-variant-numeric:normal;font-feature-settings:normal;text-align:start;writing-mode:lr-tb;text-anchor:start;stroke-width:0.64289427px"
         id="path26"
         inkscape:connector-curvature="0" />
      <path
         d="m 142.16939,-30.040245 q -0.43888,2.413853 -3.64821,2.743015 h -8.88737 q -3.26419,-0.384022 -3.64821,-2.770446 v -7.186701 q 0.5486,-2.304133 3.64821,-2.852736 h 8.88737 q 3.20933,0.576033 3.64821,2.797876 v 1.865251 h -2.96245 q 0,-1.892681 -1.67324,-1.892681 h -6.80268 q -1.78296,0 -1.78296,1.398938 v 4.388825 q 0,1.508659 1.7281,1.508659 h 6.88497 q 1.64581,0 1.64581,-1.810391 h 2.96245 z"
         style="font-style:normal;font-variant:normal;font-weight:normal;font-stretch:normal;font-size:27.43015671px;font-family:'4114 Blaster';-inkscape-font-specification:'4114 Blaster, Normal';font-variant-ligatures:normal;font-variant-caps:normal;font-variant-numeric:normal;font-feature-settings:normal;text-align:start;writing-mode:lr-tb;text-anchor:start;stroke-width:0.64289427px"
         id="path28"
         inkscape:connector-curvature="0" />
      <path
         d="m 144.62953,-40.134543 v 9.106812 q 0.41146,3.4562 3.89509,3.730501 h 8.69536 q 3.40134,-0.356592 3.7305,-3.730501 v -9.106812 h -2.9076 v 8.174187 q 0,1.645809 -1.89268,1.645809 h -6.74782 q -1.81039,0 -1.81039,-1.645809 v -8.174187 z"
         style="font-style:normal;font-variant:normal;font-weight:normal;font-stretch:normal;font-size:27.43015671px;font-family:'4114 Blaster';-inkscape-font-specification:'4114 Blaster, Normal';font-variant-ligatures:normal;font-variant-caps:normal;font-variant-numeric:normal;font-feature-settings:normal;text-align:start;writing-mode:lr-tb;text-anchor:start;stroke-width:0.64289427px"
         id="path30"
         inkscape:connector-curvature="0" />
      <path
         d="m 175.77776,-32.481529 q 1.20693,0 1.26179,0.822904 v 0.740615 q -0.0823,0.850334 -1.34408,0.850334 h -12.23385 v 2.743016 h 14.67513 q 0.21945,0 0.49375,-0.137151 0.2743,-0.164581 0.52117,-0.384022 0.2743,-0.219441 0.46631,-0.493743 0.21944,-0.274301 0.30174,-0.493743 v -4.663126 q 0,-0.301732 -0.10973,-0.576033 -0.10972,-0.301732 -0.30173,-0.521173 -0.19201,-0.246872 -0.41145,-0.384023 -0.21944,-0.164581 -0.46631,-0.164581 h -11.35609 q -0.93262,0 -0.98748,-0.713184 v -0.740614 q 0.0823,-0.850335 1.34407,-0.850335 h 12.23385 v -2.715585 h -14.56541 q -0.2743,0 -0.60346,0.137151 -0.30173,0.13715 -0.60347,0.356592 -0.2743,0.219441 -0.46631,0.466312 -0.19201,0.246872 -0.19201,0.493743 v 4.800277 q 0,0.466313 0.43888,0.905196 0.43889,0.411452 0.98749,0.576033 z"
         style="font-style:normal;font-variant:normal;font-weight:normal;font-stretch:normal;font-size:27.43015671px;font-family:'4114 Blaster';-inkscape-font-specification:'4114 Blaster, Normal';font-variant-ligatures:normal;font-variant-caps:normal;font-variant-numeric:normal;font-feature-settings:normal;text-align:start;writing-mode:lr-tb;text-anchor:start;stroke-width:0.64289427px"
         id="path32"
         inkscape:connector-curvature="0" />
    </g>
    <circle
       r="2.2306681"
       style="opacity:1;fill:#00aa88;fill-opacity:1;stroke:none;stroke-width:0.13661276;stroke-linecap:round;stroke-linejoin:round;stroke-miterlimit:4;stroke-dasharray:none;stroke-dashoffset:0;stroke-opacity:1"
       id="circle1020"
       cx="67.150337"
       cy="-44.120014" />
    <path
       style="fill:#0088aa;fill-opacity:1;fill-rule:evenodd;stroke:none;stroke-width:0.1141089px;stroke-linecap:butt;stroke-linejoin:miter;stroke-opacity:1"
       d="m 45.011204,-42.986527 -2.82219,17.12432 -7.66417,0.11592 z"
       id="path1036"
       inkscape:connector-curvature="0"
       sodipodi:nodetypes="cccc" />
    <circle
       r="3.4212928"
       style="opacity:1;fill:#00aa88;fill-opacity:1;stroke:none;stroke-width:0.2095302;stroke-linecap:round;stroke-linejoin:round;stroke-miterlimit:4;stroke-dasharray:none;stroke-dashoffset:0;stroke-opacity:1"
       id="circle1042"
       cx="48.4972"
       cy="-49.808521" />
    <path
       sodipodi:nodetypes="cccc"
       inkscape:connector-curvature="0"
       id="path1052"
       d="m 48.283174,-25.217117 2.82219,-17.12432 7.66417,-0.11592 z"
       style="fill:#0088aa;fill-opacity:1;fill-rule:evenodd;stroke:none;stroke-width:0.1141089px;stroke-linecap:butt;stroke-linejoin:miter;stroke-opacity:1" />
  </g>
</svg>
